<?xml version="1.0" encoding="utf-8" ?><svg xmlns="http://www.w3.org/2000/svg" xmlns:xlink="http://www.w3.org/1999/xlink" width="1024" height="1024" viewBox="0 0 1024 1024"><path fill="#0C3730" d="M85.1555 609.659C69.3499 553.752 68.2623 476.591 79.4901 419.899C101.749 307.509 172.425 201.999 267.047 137.915C331.349 94.5358 406.708 70.4334 484.248 68.4463C494.14 68.1484 504.039 68.2099 513.927 68.6304C516.61 68.7293 522.909 68.8354 525.359 69.3084L524.76 69.8785C525.738 70.2133 527.79 70.9744 528.7 71.1617L528.211 71.1979C520.877 71.696 511.26 71.6469 503.545 72.0043C489.926 72.6699 476.347 74.0065 462.859 76.0091C359.049 91.5579 264.205 143.673 195.42 222.964C137.624 288.491 101.012 369.975 90.3992 456.701C105.786 442.603 130.558 424.492 147.531 410.925C197.886 371.18 248.59 331.88 299.637 293.027L434.93 191.232L472.706 162.938C482.269 155.628 490.952 148.283 501.074 141.649C504.277 133.818 500.903 130.855 504.076 125.053C499.155 119.476 493.506 113.922 495.99 105.443C497.582 100.006 502.145 97.5685 506.845 95.1931C500.621 102.356 497.137 114.934 509.118 119.014C511.525 119.834 514.573 119.232 517.42 120.099C516.889 121.989 511.634 121.742 508.332 124.136C507.44 126.397 508.811 128.496 509.078 130.499C509.002 129.933 507.899 135.136 507.807 135.749L508.236 136.308C512.84 134.06 523.719 125.869 528.249 122.556C544.214 110.875 559.914 98.8359 575.337 86.4474C587.374 103.275 602.393 121.208 615.465 137.486L678.321 216.07L854.74 440.707L916.299 519.291C925.423 530.976 942.128 551.249 949.688 563.159C947.786 584.506 939.922 610.309 934.277 631.078C933.052 635.585 931.119 642.166 929.393 646.456C926.231 656.499 919.666 671.72 915.318 681.324C891.292 735.588 855.301 783.714 810.04 822.097C718.951 899.146 608.616 931.24 490.29 921.33L595.511 789.055L643.985 726.89C652.49 716.007 660.917 705.062 669.706 694.394C676.741 685.855 681.114 685.357 691.743 684.486C697.948 673.018 707.989 658.991 715.27 647.77C723.109 636.483 729.823 623.453 739.075 613.324C743.422 608.7 755.485 606.506 760.283 611.188C773.432 624.016 784.379 640.807 796.306 654.894C818.68 652.29 822.065 663.545 835.649 677.64C849.606 692.121 862.74 707.537 876.676 721.965C890.332 699.496 900.056 677.486 909.856 653.177C898.905 636.872 885.389 620.289 873.177 604.768C857.124 584.457 841.212 564.036 825.441 543.505L772.772 475.266C763.769 463.587 755.09 450.934 745.282 439.962C736.763 430.432 723.424 438.641 716.833 430.711C705.506 417.085 670.938 354.844 659.896 348.454C658.403 347.59 657.078 347.144 655.357 347.668C652.18 348.635 648.92 351.645 647.028 354.292C642.211 361.027 638.868 369.406 635.193 376.836C631.222 384.863 626.958 392.74 622.887 400.717C620.036 406.305 617.466 412.071 614.418 417.552C608.539 428.122 602.647 423.31 593.761 426.224C592.151 426.752 590.603 427.637 589.493 428.932C584.587 434.658 580.913 442.717 577.134 449.273C568.974 463.432 560.85 477.561 553.075 491.937L560.759 494.114C556.394 500.362 552.425 512.055 549.146 519.361C544.712 529.237 538.557 539.196 535.44 549.524C533.352 556.442 534.72 598.77 535.074 608.958L584.981 507.329C591.58 493.993 602.93 468.86 610.828 457.638C614.344 461.02 620.45 469.436 623.6 473.555C626.558 461.983 631.83 450.634 635.715 439.356C641.124 423.655 647.768 410.004 655.5 395.419C653.643 405.901 637.516 518.516 635.452 520.643C603.59 553.474 566.236 585.258 535.006 620.079C534.884 625.315 534.862 630.807 534.919 636.046C535.305 671.625 534.426 707.458 535.388 743.01L526.135 753.741L525.93 520.178C521.05 518.466 516.062 517.079 511 516.024C509.671 521.436 507.312 527.579 505.427 532.902C502.792 527.692 500.404 521.423 499.326 515.689C495.745 516.85 491.02 518.542 487.818 520.429C480.465 537.097 481.533 558.606 481.536 576.585L481.463 621.884L481.615 725.682C481.765 752.413 482.195 779.971 481.736 806.678C479.73 810.142 473.375 816.845 470.444 820.068L470.572 730.303C470.673 720.353 470.395 709.499 470.81 699.673C462.938 697.796 453.669 697.48 445.607 695.822C409.734 688.445 371.949 686.255 336.349 678.214C336.143 685.896 335.984 693.966 336.128 701.634C337.35 766.684 334.948 832.371 336.446 897.341L391.712 919.329C389.586 923.775 385.532 928.504 382.343 932.24C340.934 920.458 293.591 893.603 259.318 867.801C199.967 823.52 151.695 766.078 118.295 699.989C103.614 670.266 93.8863 641.39 85.1555 609.659ZM98.3131 599.712C100.551 612.053 104.093 624.121 108.882 635.714C115.812 634.279 125.212 633.8 132.5 633.151C145.825 631.965 159.171 631.024 172.469 629.45C171.534 614.304 172.886 598.578 171.56 583.483C170.95 576.53 167.219 568.949 165.357 562.018C159.722 541.041 159.938 518.106 166.528 497.512C177.345 461.676 204.583 440.89 236.318 424.35C252.304 416.017 268.444 407.678 285.004 400.289C287.467 399.19 292.166 396.664 292.856 393.791C293.629 390.58 289.402 388.763 288.312 385.993C284.631 379.451 294.026 377.032 296.774 371.645C298.241 368.767 298.997 365.535 299.903 362.472C277.461 350.999 280.97 329.843 302.924 320.66C296.581 328.208 290.291 337.564 298.482 347.446C300.265 349.598 301.97 349.61 303.784 350.759C309.266 354.233 314.503 347.889 317.856 347.964C318.418 350.057 316.863 354.397 315.869 355.984C313.466 359.823 305.958 361.38 301.684 362.59C302.356 365.404 302.483 367.621 302.737 370.481C311.024 378.587 318.347 383.797 306.018 392.017C313.835 402.148 345.297 415.93 357.525 421.762C399.411 441.74 432.243 469.953 434.517 519.751C435.136 533.307 434.234 565.587 424.897 576.386C424.608 592.176 424.743 613.313 425.409 628.894C440.269 630.645 457.45 634.23 472.621 636.611C473.717 624.077 472.973 606.013 473.113 593.214C473.026 575.5 473.214 557.763 472.986 540.052C472.925 535.283 470.927 532.611 470.929 527.343C466.483 523.381 465.362 516.805 462.773 511.385C460.112 505.813 457.373 500.318 454.702 494.76C460.427 491.895 467.689 489.64 474.037 486.564C474.745 468.269 473.987 447.869 474.362 429.185C474.698 412.407 475.718 390.228 473.171 374.085C472.205 367.962 459.652 345.319 455.912 339.917C463.683 336.287 472.209 332.825 480.148 329.472C479.816 321.768 480.074 312.247 480.089 304.448C480.177 289.38 480.142 274.31 479.985 259.242C477.065 254.866 472.881 246.424 470.442 241.541C474.948 239.072 478.441 237.239 483.17 235.106C484.553 225.388 487.301 213.268 489.112 203.247C491.049 192.525 493.382 177.15 496.264 166.969C490.293 169.657 471.349 184.221 465.217 188.883L415.09 226.93C303.724 309.379 194.34 394.472 87.0305 482.136C86.9414 493.225 86.6562 505.314 87.0972 516.335C88.3676 544.404 92.1209 572.305 98.3131 599.712ZM534.489 485.566L539.04 487.434C546.192 474.115 553.417 460.836 560.715 447.597C566.138 437.623 571.134 426.61 578.354 417.837C583.983 410.997 592.789 410.428 601.015 409.737L622.305 367.675C626.672 359.097 630.69 348.58 636.958 341.288C639.943 337.815 643.91 335.337 648.235 333.887C654.806 331.685 661.956 331.968 668.135 335.221C681.549 342.283 714.624 401.653 727.587 418.13C740.38 418.846 749.776 420.676 758.294 431.037C775.21 451.616 791.166 473.029 807.248 494.224L885.063 595.06C894.749 607.398 906.326 623.635 916.666 635.127C917.821 628.881 922.205 615.764 924.009 608.531C927.537 594.387 929.722 581.171 932.842 567.197C901.331 525.341 869.172 483.977 836.376 443.119L730.954 309.693L611.961 159.486C598.72 142.853 586.601 126.414 572.975 109.866C555.789 124.411 531.359 141.077 512.882 155.196C516.401 169.263 519.307 184.213 522.366 198.432C524.609 208.857 528.934 224.65 529.653 235.069L540.57 239.56C538.829 243.911 533.766 255.068 533.197 258.459C532.166 264.595 532.313 276.092 532.259 282.76C532.156 298.854 532.14 314.948 532.211 331.041L554.463 338.374C549.992 347.941 543.561 358.387 539.387 368.144C537.307 373.006 535.915 381.323 534.717 386.614C534.132 400.257 534.021 415.554 534.243 429.226C534.54 447.459 533.544 467.587 534.489 485.566ZM713.465 678.701C723.863 692.982 734.226 707.912 744.592 722.368C734.801 718.12 695.641 698.556 686.422 701.923C684.128 702.761 682.235 704.202 680.627 706.019C672.318 715.411 664.831 725.845 657.126 735.744L618.873 784.465L571.81 843.917C559.101 859.908 546.068 876.033 534.105 892.572C559.78 875.559 585.822 859.153 610.95 841.349C614.275 838.993 617.669 836.544 621.188 834.496C610.838 855.463 604.019 877.325 597.648 899.788C608.077 884.587 617.926 868.998 627.175 853.052C639.277 831.929 649.47 811.033 660.176 789.18C662.799 783.695 665.475 778.237 668.206 772.805C667.776 777.707 667.166 782.584 666.528 787.463C663.102 813.681 661.899 840.63 658.597 866.807C671.016 856.344 684.303 846.777 697.094 836.77C699.481 834.903 701.904 833.075 704.403 831.36C712.678 811.477 721.069 791.642 729.575 771.857C736.107 774.561 742.842 777.629 749.218 780.696C766.704 789.11 784.542 796.885 802.089 805.131C796.276 784.3 788.581 765.617 782.728 744.873C797.14 759.674 810.293 774.401 824.107 789.735L839.663 771.337C834.43 764.673 817.88 746.338 811.545 740.502C825.578 747.794 835.734 753.928 848.964 762.185C854.567 753.639 862.128 744.003 867.151 735.69C856.661 721.46 840.262 705.011 828.292 691.43C823.57 686.073 812.545 673.892 807.629 669.64C800.508 669.944 796.001 670.609 789.002 672.001C783.382 664.245 756.388 626.978 750.455 623.289C739.328 637.503 730.159 655.076 719.502 669.77C717.503 672.527 715.261 675.804 713.465 678.701ZM502.407 321.735L508.434 323.932C508.393 310.922 505.96 268.378 513.372 258.902L514.506 258.402C524.56 263.256 518.681 314.288 520.666 325.567C520.935 327.098 522.454 327.738 523.853 327.324C524.57 326.238 525.023 325.012 525.03 323.694C525.129 306.312 525.006 288.903 525.088 271.513C525.108 267.313 524.855 263.448 524.024 259.336C523.423 256.425 522.538 253.58 521.381 250.842C517.104 249.503 507.122 246.389 502.933 246.443L501.935 246.517C499.206 245.838 489.751 251.407 487.248 252.984C486.88 259.638 485.649 321.221 487.551 325.389L488.401 325.782C491.604 323.945 490.753 315.009 490.852 311.491C491.434 290.7 486.566 274.649 496.713 255.484C503.569 268.837 502.606 276.518 502.551 291.15L502.407 321.735ZM467.998 506.348C478.756 502.154 493.017 496.606 503.99 493.35L507.608 494.432C520.133 497.84 532.63 501.347 545.099 504.953C546.249 502.401 547.505 499.734 548.564 497.156C542.8 495.605 507.333 484.405 504.543 484.523C491.268 489.465 478.1 493.259 465.104 498.988C466.019 501.441 466.903 503.978 467.998 506.348ZM503.158 190.717L503.708 190.995C503.784 193.075 503.902 195.152 504.063 197.227C504.425 204.937 503.005 218.851 502.684 227.329C508.192 229.126 517.176 231.03 523.284 232.716C518.682 208.237 512.796 180.642 506.496 156.544C506.226 155.279 506.097 154.784 505.668 153.566C504.835 154.045 504.603 155.787 504.218 157.032C502.577 169.494 499.026 185.736 496.553 198.301C494.657 207.934 492.715 223.501 490.476 232.367C502.923 227.049 499.626 228.075 500.894 215.05C501.645 207.334 501.768 198.294 503.158 190.717ZM366.222 549.23C385.038 553.162 403.877 556.244 420.455 567.297C422.001 564.702 422.94 557.64 423.419 554.528C426.479 534.654 427.344 515.5 421.407 496.058C408.522 453.856 368.991 437.1 332.603 419.649C322.162 414.552 312.927 408.054 302.805 402.847C308.262 407.646 316.534 413.768 322.373 418.381C327.193 422.875 333.529 428.8 337.649 433.787C359.772 460.569 365.378 493.036 366.193 526.675C366.376 534.219 366.036 541.884 366.222 549.23ZM289.108 408.531C285.259 410.289 281.238 411.976 277.347 413.665C239.784 430.899 198.002 449.668 179.587 488.926C183.089 488.412 183.502 487.761 186.264 485.474C188.265 486.777 191.033 488.196 192.084 490.16L191.856 490.983L190.159 491.8L191.459 493.945L191.003 494.421C186.678 494.426 181.73 492.881 179.587 488.926C177.798 492.316 171.376 506.612 172.38 510L173.636 510.106C177.362 509.369 187.9 507.058 189.124 512.008C188.411 513.656 187.858 513.95 186.507 515.103C185.084 515.695 185.138 515.788 183.655 516.027C181.886 515.246 179.785 516.133 177.78 516.635L177.152 516.236L177.453 513.798C176.585 511.979 176.535 512.422 174.357 511.207C172.323 510.764 172.955 510.47 171.78 511.218C165.604 523.481 171.581 548.652 175.133 561.436C177.935 560.783 180.927 559.867 183.676 558.997C196.248 555.016 208.624 552.2 221.578 549.822C221.294 537.066 221.031 526.214 222.269 513.524C226.225 472.982 249.119 441.411 279.507 416.197C282.792 413.735 285.932 411.129 289.108 408.531ZM327.503 679.752L195.289 692.795C177.523 694.508 152.549 698.142 135.066 698.585C139.514 707.404 151.822 728.784 157.556 736.924C164.168 723.454 170.717 716.336 184.65 710.345C199.965 715.213 213.864 727.263 215.251 744.063C215.844 751.243 215.479 759.264 215.443 766.515C215.235 781.329 215.274 796.147 215.56 810.96C219.423 813.672 225.231 819.451 228.949 822.777C228.878 799.308 228.622 775.841 228.181 752.377C228.21 738.118 231.284 728.847 241.764 718.457C247.071 713.227 253.287 709.008 260.107 706.006C276.774 713 291.282 725.116 291.715 744.39C292.089 761.023 291.976 777.578 291.923 794.211L291.905 871.415C305.623 880.791 313.348 885.405 327.982 893.034C325.685 868.711 330.174 683.703 327.645 679.823L327.503 679.752ZM469.645 509.967C470.83 512.932 471.923 515.667 472.942 518.698C480.732 514.901 496.39 509.668 505.034 506.564L508.137 507.545C518.6 511.019 528.889 513.347 539.112 517.58C540.656 514.523 542.336 511.328 543.797 508.249C537.717 506.287 508.463 497.512 503.7 497.509C492.255 501.404 480.901 505.558 469.645 509.967ZM281.7 554.227C260.912 555.524 192.208 560.027 178.367 574.7C177.888 575.209 177.968 575.174 177.529 575.885L178.505 577.009C183.965 577.253 196.836 572.664 202.976 571.07C211.241 568.904 219.589 567.071 228 565.575C254.683 560.936 287.537 559.74 314.782 560.543C343.841 561.291 375.161 564.852 402.793 573.891C405.549 574.792 413.778 578.247 416.061 577.557C416.207 576.415 416.096 576.372 415.396 575.505C405.055 562.702 344.019 556.099 326.797 554.857C311.789 553.774 296.735 554.078 281.7 554.227ZM281.05 864.928L280.462 782.365C280.377 770.103 280.483 757.961 280.01 745.703C279.547 733.72 270.965 724.679 260.718 719.402C233.943 733.481 239.96 753.826 239.417 779.922C239.058 797.217 240.237 815.088 239.634 832.323C249.503 840.945 257.504 847.423 267.932 855.407C272.414 858.574 276.629 861.716 281.05 864.928ZM465.692 344.074C466.683 346.209 467.843 348.906 468.997 350.903C474.339 348.24 497.926 339.36 503.547 337.881L508.131 339.557C517.357 342.527 532.452 346.964 541.16 350.467L545.476 342.874C539.774 340.766 505.968 329.421 502.063 329.946C490.03 334.884 477.904 339.594 465.692 344.074ZM501.578 233.519C493.62 236.661 486.299 239.545 478.537 243.187C479.256 245.497 480.026 248.218 480.868 250.451C489.559 246.39 494.596 245.118 501.248 238.506C503.283 239.854 502.251 240.792 504.243 241.631C513.207 243.737 522.137 245.981 531.032 248.361C531.87 246.315 532.718 244.368 533.371 242.253C523.182 238.353 512.434 234.924 501.578 233.519ZM524.522 365.331C525.794 367.203 528.42 371.676 529.985 372.517L530.776 372.339C531.295 370.521 531.772 369.639 531.162 367.872C529.532 365.937 527.098 365.836 524.522 365.331ZM196.346 789.018C199.142 792.248 202.041 795.715 204.908 798.855C204.935 780.809 205.973 761.56 203.459 743.858C202.496 737.079 190.996 723.102 183.703 723.408C172.168 730.91 168.493 735.612 165.629 749.085C176.611 764.364 183.798 774.858 196.346 789.018ZM182.293 599.29C183.519 597.36 187.961 592.784 190.005 593.084C200.751 594.658 199.433 619.7 199.364 625.76C205.287 625.215 210.885 624.705 216.831 624.433C217.435 614.644 215.14 598.166 220.75 590.595C222.762 587.87 226.509 586.058 229.865 585.861C245.88 584.923 242.694 611.327 243.282 621.38C250.406 620.413 258.577 620.018 265.835 619.519C264.894 609.871 263.59 594.886 269.84 586.938C273.639 582.107 283.282 581.292 287.639 585.856C294.718 593.274 293.651 606.822 293.681 616.373C301.241 615.707 309.004 614.933 316.562 614.491C316.554 605.527 315.418 592.794 322.319 585.939C327.209 581.081 334.763 582.853 339.073 587.627C345.598 594.855 344.91 604.859 344.649 613.886C350.869 614.684 361.103 616.257 366.969 617.912C366.939 610.838 365.454 577.854 384.261 591.512C390.84 596.289 390.015 613.984 390.05 622.159C394.413 622.845 398.768 623.583 403.113 624.372C403.032 619.033 401.612 603.421 407.506 601.069C414.017 601.551 414.659 612.132 415.566 617.413C416.317 614.465 416.023 593.498 415.989 589.638C389.74 573.143 313.17 566.212 282.352 568.861C244.046 570.212 216.481 575.466 180.316 587.013C180.162 589.77 179.144 600.009 180.58 601.721C181.635 600.711 181.598 600.607 182.293 599.29ZM535.766 361.745L538.995 354.088C532.343 351.472 507.823 341.751 502.057 342.537C491.464 345.981 481.026 349.883 470.771 354.232L474.498 361.031C483.73 358.224 494.917 353.26 503.63 348.961C504.645 349.695 505.055 350.282 506.186 350.866C516.001 354.612 525.862 358.239 535.766 361.745ZM111.897 643.796C112.357 645.776 112.399 647.228 113.916 648.463C116.065 649.255 118.918 648.411 121.329 647.986C121.302 671.896 121.417 670.364 131.73 691.697C138.046 690.21 148.159 689.503 154.742 688.94L182.827 686.388C208.707 683.975 235.634 680.673 261.383 678.647C278.206 676.59 295.047 674.671 311.902 672.893C318.595 672.202 327.685 671.063 334.129 670.878C339.272 670.73 349.983 672.488 355.348 673.264L386.411 677.89L429.717 684.561C442.287 686.405 456.22 688.184 468.654 690.379C469.35 678.54 468.842 656.925 468.492 644.734C455.335 642.761 440.904 639.753 427.713 637.322L387.991 630.34C371.852 627.358 339.76 619.312 325.41 621.708L177.782 636.669L136.698 640.729C129.718 641.411 118.345 642.232 111.897 643.796ZM533.284 524.209C533.007 526.87 532.716 529.583 533.747 532.131C534.011 529.604 534.723 526.272 533.284 524.209ZM505.814 358.266C505.045 362.425 504.1 366.99 503.538 371.148C502.601 367.265 501.578 363.404 500.47 359.567C496.773 361.296 492.469 363.179 488.878 365.011C486.168 370.004 484.425 375.465 483.742 381.105C482.814 388.482 482.834 398.96 482.703 406.616C482.47 424.762 482.514 442.911 482.833 461.056C482.89 467.184 482.849 474.762 483.038 480.962C483.068 481.918 483.859 482.575 484.446 483.157C485.629 483.111 486.309 482.872 487.059 481.868C490.083 477.825 487.188 402.816 488.555 390.804C489.171 385.387 490.597 380.537 492.766 375.551C493.397 374.098 493.841 372.283 495.133 371.367C496.434 373.971 500.107 387.185 500.195 390.073C500.949 414.694 501.64 441.061 500.927 465.625C500.929 469.006 500.794 473.992 501.099 477.222C503.671 477.492 506.168 477.744 508.73 478.124C508.466 460.771 508.333 443.417 508.333 426.062C508.281 408.31 506.896 391.584 513.376 374.695L514.169 374.05C521.623 379.225 520.792 407.01 520.843 415.608L520.938 461.149C520.94 467.008 520.883 472.888 521.002 478.743C521.053 481.232 522.512 481.442 524.448 481.87L525.352 481.48C526.472 477.554 525.975 450.425 525.989 444.979L526.028 404.372C525.997 396.562 526.151 388.361 525.397 380.596C524.788 374.329 521.415 369.503 519.533 363.747C514.783 361.545 510.704 360.056 505.814 358.266ZM189.289 519.112L191.064 519.731C193.643 518.48 191.268 517.796 193.967 517.088C198.17 519.719 195.035 520.284 201.429 520.303C200.132 524.226 198.174 521.561 200.89 527.067C198.182 526.63 186.259 524.387 184.641 524.266L184.726 523.767C186.436 522.802 188.673 521.816 189.717 520.255L189.289 519.112ZM300.561 406.024C268.372 429.147 245.304 455.822 233.228 494.316C227.521 512.509 227.501 530.094 228.077 548.963C245.934 546.016 272.939 543.788 291.125 543.71C315.459 543.041 338.066 545.357 362.024 548.867C362.39 502.254 360.718 464.043 325.352 427.663C317.399 419.481 308.691 413.532 300.561 406.024Z"/><path fill="#B59B63" d="M85.1555 609.659C69.3499 553.752 68.2623 476.591 79.4901 419.899C101.749 307.509 172.425 201.999 267.047 137.915C331.349 94.5358 406.708 70.4334 484.248 68.4463C494.14 68.1484 504.039 68.2099 513.927 68.6304C516.61 68.7293 522.909 68.8354 525.359 69.3084L524.76 69.8785C525.738 70.2133 527.79 70.9744 528.7 71.1617L528.211 71.1979C520.877 71.696 511.26 71.6469 503.545 72.0043C489.926 72.6699 476.347 74.0065 462.859 76.0091C359.049 91.5579 264.205 143.673 195.42 222.964C137.624 288.491 101.012 369.975 90.3992 456.701C105.786 442.603 130.558 424.492 147.531 410.925C197.886 371.18 248.59 331.88 299.637 293.027L434.93 191.232L472.706 162.938C482.269 155.628 490.952 148.283 501.074 141.649C499.61 149.97 498.226 158.797 496.264 166.969C490.293 169.657 471.349 184.221 465.217 188.883L415.09 226.93C303.724 309.379 194.34 394.472 87.0305 482.136C86.9414 493.225 86.6562 505.314 87.0972 516.335C88.3676 544.404 92.1209 572.305 98.3131 599.712C93.9337 602.269 89.128 606.377 85.1555 609.659Z"/><path fill="#B59B63" d="M575.337 86.4474C587.374 103.275 602.393 121.208 615.465 137.486L678.321 216.07L854.74 440.707L916.299 519.291C925.423 530.976 942.128 551.249 949.688 563.159C947.786 584.506 939.922 610.309 934.277 631.078C933.052 635.585 931.119 642.166 929.393 646.456C925.406 642.672 920.823 638.788 916.666 635.127C917.821 628.881 922.205 615.764 924.009 608.531C927.537 594.387 929.722 581.171 932.842 567.197C901.331 525.341 869.172 483.977 836.376 443.119L730.954 309.693L611.961 159.486C598.72 142.853 586.601 126.414 572.975 109.866C555.789 124.411 531.359 141.077 512.882 155.196C511.924 149.983 510.427 140.798 508.236 136.308C512.84 134.06 523.719 125.869 528.249 122.556C544.214 110.875 559.914 98.8359 575.337 86.4474Z"/><path fill="#0C3730" d="M329.133 627.205C337.159 626.4 342.765 627.959 350.614 629.493C350.486 638.382 350.274 657.57 350.894 666.034C347.445 665.24 344.669 664.719 341.172 664.163C332.321 662.561 328.067 663.309 319.011 664.758L318.961 628.082L329.133 627.205Z"/><path fill="#0C3730" d="M190.086 640.742C190.601 640.663 191.012 640.773 191.559 640.841C192.692 643.69 192.449 672.556 192.479 677.425C188.784 678.136 181.519 678.605 177.565 678.963C176.64 678.985 176.54 678.924 175.619 678.775C174.526 676.252 175.03 647.399 174.87 642.11C179.1 642.014 185.708 641.167 190.086 640.742Z"/><path fill="#0C3730" d="M210.01 638.706C211.514 638.512 214.479 638.447 216.104 638.357C216.538 650.671 215.975 663.111 216.459 675.323C212.808 675.53 209.249 675.946 205.615 676.341L199.547 676.741C199.238 664.425 199.068 652.105 199.037 639.784L210.01 638.706Z"/><path fill="#0C3730" d="M237.045 635.707C238.414 635.514 238.872 635.28 240.095 635.859C240.865 641.778 240.259 665.82 240.173 672.844C236.165 673.127 232.087 673.516 228.077 673.857C226.703 674.059 225.734 674.109 224.367 674.176C223.184 672.317 223.522 641.957 223.51 637.15L237.045 635.707Z"/><path fill="#0C3730" d="M306.183 629.295L311.94 628.786L311.984 665.427C307.026 666.076 302.587 666.407 297.619 666.759C296.267 667.032 296.687 666.961 295.26 666.815C293.822 663.998 295.265 637.085 294.427 630.45C298.342 630.034 302.261 629.65 306.183 629.295Z"/><path fill="#0C3730" d="M257.871 633.708C258.907 633.51 262.773 633.413 264.032 633.352C263.956 645.683 264.114 658.014 264.506 670.338C261.342 670.555 258.116 670.986 254.961 671.363C252.258 671.435 250.147 671.69 247.487 672.007C247.961 661.324 247.792 645.561 247.518 634.755C250.973 634.449 254.425 634.099 257.871 633.708Z"/><path fill="#0C3730" d="M166.253 643.252L167.849 643.181C169.022 645.068 168.431 675.198 168.498 679.867L154.615 681.305L152.761 681.417C151.49 679.91 151.994 649.23 151.989 644.557C156.732 643.997 161.488 643.561 166.253 643.252Z"/><path fill="#0C3730" d="M144.098 645.719C144.57 645.676 144.261 645.667 144.99 645.977C144.824 655.668 144.578 673.525 145.39 682.503C140.942 683.317 134.384 683.779 129.74 684.258L129.593 684.263C128.336 683.133 128.835 652.079 128.459 647.1C133.627 646.799 138.934 646.216 144.098 645.719Z"/><path fill="#0C3730" d="M279.845 631.704L287.67 631.247C288.081 642.381 287.413 657.219 288.577 667.812L279.378 668.58C277.322 668.684 273.621 669.205 271.467 669.443C272.215 657.242 271.731 644.82 271.442 632.589L279.845 631.704Z"/><path fill="#0C3730" d="M377.629 634.319C381.069 635.02 384.519 635.671 387.977 636.273C387.788 648.042 387.963 659.808 387.794 671.595C385.136 671.474 380.917 670.672 377.799 670.406C378.006 658.318 377.495 646.325 377.629 634.319Z"/><path fill="#0C3730" d="M359.543 631.261L369.437 633.059C368.827 643.234 369.238 657.721 369.143 668.327C367.91 668.948 361.361 667.616 359.518 667.309C359.667 655.394 359.539 643.199 359.543 631.261Z"/><path fill="#0C3730" d="M396.585 638.125C399.978 638.794 403.366 639.49 406.748 640.213C406.49 651.747 406.44 663.285 406.598 674.82C403.164 674.086 399.967 673.591 396.496 673.055C397.226 663.51 396.461 648.334 396.585 638.125Z"/><path fill="#0C3730" d="M433.231 644.81C437.101 645.215 439.722 645.544 443.514 646.33C442.686 654.554 443.103 670.725 442.985 679.835C439.781 679.681 436.591 679.005 433.429 678.433C433.451 667.616 433.734 655.524 433.231 644.81Z"/><path fill="#0C3730" d="M415.159 641.254C418.694 641.603 420.989 642.104 424.474 642.87C424.147 653.775 424.447 666.125 424.517 677.133C421.435 676.718 418.236 676.392 415.138 676.038C414.908 664.727 415.102 652.614 415.159 641.254Z"/><path fill="#0C3730" d="M451.841 648.29C453.945 648.884 458.651 649.499 461.027 649.865C461.283 660.177 460.94 672.229 460.953 682.753C457.918 682.631 454.969 682.194 451.958 681.803L451.841 648.29Z"/><path fill="#0C3730" d="M266.771 504.439C269.438 504.83 277.745 508.271 277.448 511.298C270.103 511.694 273.102 513.261 268.587 515.497C266.918 514.996 266.477 514.144 265.362 512.783C262.023 513.758 258.777 514.878 255.483 515.99C257.775 514.195 259.403 513.04 261.35 510.839C261.779 508.553 259.698 510.443 258.329 508.03C260.708 506.06 263.665 506.911 266.771 504.439Z"/><path fill="#0C3730" d="M244.03 520.618C245.232 519.914 247.739 518.034 248.562 518.445C251.255 519.79 255.043 520.964 257.297 522.884L257.432 523.662C255.418 524.899 252.63 524.586 250.249 524.545L254.783 530.445C251.938 529.319 248.836 528.16 246.075 526.905C243.447 527.902 240.532 528.943 237.958 530.008C239.235 528.127 241.187 525.763 241.364 523.581C239.565 523.023 239.012 522.983 237.598 521.697L237.716 520.948C239.92 520.14 241.659 520.473 244.03 520.618Z"/><path fill="#17433E" d="M241.364 523.581C239.565 523.023 239.012 522.983 237.598 521.697L237.716 520.948C239.92 520.14 241.659 520.473 244.03 520.618L241.674 521.371C241.16 522.465 241.185 522.382 241.364 523.581Z"/><path fill="#0C3730" d="M266.745 528.728C268.979 529.905 269.568 530.993 271.118 532.982C274.778 533.82 276.654 533.937 280.429 534.195C277.156 535.426 275.212 535.922 271.802 536.752C272.368 538.33 272.862 539.273 272.756 540.95L271.922 541.313L269.594 540.374C268.644 539.683 268.124 539.359 267.139 538.74C263.866 538.382 261.298 539.371 258.046 540.186C262.632 534.556 259.628 536.156 258.715 532.386C263.487 532.632 263.818 532.665 266.745 528.728Z"/><path fill="#0C3730" d="M265.996 477.847C271.172 478.701 275.94 481.856 279.262 485.816L278.947 486.167C276.958 485.501 275.366 485.103 273.324 484.599C272.755 484.93 270.825 486.076 270.439 486.609C269.068 488.5 265.782 485.619 263.4 486.809C262.675 487.171 261.24 487.258 260.385 487.229L260.153 486.532C261.234 485.593 260.959 486.046 261.494 484.803C260.47 483.706 260.356 483.538 259.556 482.263C260.682 479.709 262.887 482.465 265.996 477.847Z"/><path fill="#0C3730" d="M265.587 453.759C269.432 456.106 274.773 454.932 278.71 457.346C276.964 458.565 275.47 457.88 273.206 458.943C273.151 460.214 274.388 460.729 275.656 462.397C274.548 463.319 274.145 462.935 272.229 462.886L271.805 462.718C267.848 463.123 268.363 467.217 264.7 462.144C264.574 461.97 260.648 462.323 259.279 461.38L259.584 460.613C261.883 459.138 261.605 459.809 264.685 459.461C264.233 458.3 263.978 458.33 263.053 457.469C263.42 455.935 264.517 454.982 265.587 453.759Z"/><path fill="#0C3730" d="M282.03 490.334C284.711 491.207 290.142 490.521 291.374 491.977C290.345 493.503 288.933 493.987 287.263 494.857C288.69 496.44 290.547 497.919 292.184 499.318C289.702 498.691 287.215 498.085 284.723 497.499C281.215 498.34 278.63 499.277 275.221 500.492L278.795 496.24C278.457 496.016 278.121 495.79 277.788 495.56C276.182 494.455 275.163 493.922 274.845 492.184C276.525 491.099 279.512 491.319 282.03 490.334Z"/><path fill="#0C3730" d="M284.467 517.383C290.24 521.561 287.511 521.672 296.492 522.24C292.599 523.12 291.127 523.608 287.837 525.989C287.027 526.575 286.845 526.73 285.845 526.852L283.784 525.121C282.232 525.633 280.646 526.12 279.086 526.614C276.806 526.129 277.548 523.551 275.806 521.861C274.88 520.963 272.34 519.553 271.172 518.87C276.54 520.001 280.343 521.746 284.467 517.383Z"/><path fill="#0C3730" d="M261.805 490.597C261.991 490.699 262.177 490.8 262.363 490.901C261.148 491.959 258.237 493.342 256.694 494.146C258.017 495.223 259.008 495.852 259.87 497.328C259.035 498.83 257.844 499.046 256.075 499.957C252.829 498.547 251.654 497.971 248.111 498.027C247.595 498.411 247.953 498.212 246.924 498.349C246.802 497.441 245.996 495.117 245.687 494.031C250.432 490.602 255.335 492.811 261.075 490.852L261.805 490.597Z"/><path fill="#0C3730" d="M285.774 467.049C286.882 467.052 291.807 469.735 293.78 470.314L293.803 471.171C291.883 472.69 289.266 471.63 287.577 473.09C287.171 474.427 287.01 475.602 286.001 476.497C284.09 475.92 284.237 474.658 281.993 473.065L281.304 473.705C278.755 475.255 275.089 477.714 272.27 478.182C275.133 475.963 277.337 474.971 280.002 472.354C279.835 471.445 279.652 470.98 279.311 470.129C280.67 467.895 283.13 467.717 285.774 467.049Z"/><path fill="#0C3730" d="M198.107 497.717C199.81 498.436 204.622 500.191 205.626 500.978C204.808 502.027 203.087 501.819 201.4 503.423C199.512 509.314 215.224 507.521 218.656 507.455C218.436 507.632 216.008 509.568 216.002 509.578C214.649 511.537 215.77 513.384 213.981 514.426C212.071 513.894 211.361 513.504 209.555 512.622C207.635 513.472 205.871 514.467 203.818 514.594C201.737 512.573 204.272 503.615 195.042 504.59C194.032 505.531 192.88 506.686 191.51 506.511C191.104 504.548 191.539 504.448 192.277 502.212C191.259 501.943 190.648 501.795 189.674 501.404L189.745 500.459C191.98 499.212 195.329 498.765 198.107 497.717Z"/><path fill="#17433E" d="M192.277 502.212C193.119 504.046 192.887 503.944 195.042 504.59C194.032 505.531 192.88 506.686 191.51 506.511C191.104 504.548 191.539 504.448 192.277 502.212Z"/><path fill="#0C3730" d="M196.949 530.227C199.076 529.821 202.03 529.64 204.277 529.385C205.636 528.406 205.042 529.019 205.579 526.9C207.237 525.859 215.384 528.571 216.46 530.365C215.578 531.917 216.197 531.233 214.085 532.04C216.037 533.865 218.018 535.664 219.861 537.596C216.889 535.928 213.922 533.9 210.556 533.797C208.76 534.649 207.973 535.026 206.09 535.601C203.603 535.048 202.99 532.526 201.072 531.731C200.18 531.361 197.945 530.589 196.949 530.227Z"/><path fill="#17433E" d="M210.556 533.797C211.027 533.449 212.869 532.899 214.085 532.04C216.037 533.865 218.018 535.664 219.861 537.596C216.889 535.928 213.922 533.9 210.556 533.797Z"/><path fill="#0C3730" d="M182.136 530.086C184.103 532.056 186.841 532.404 187.495 533.581C186.533 534.693 186.213 534.919 185.638 536.282C185.913 538.064 186.533 539.163 187.272 540.793L186.811 540.967L187.057 540.422L186.347 540.662C184.246 539.415 182.233 538.426 180.058 537.33C177.837 538.678 177.947 539.515 174.809 540.877C175.029 536.229 175.36 537.039 172.117 533.988C177.564 530.433 178.931 533.135 182.136 530.086Z"/><path fill="#0C3730" d="M193.766 540.079C196.475 542.145 199.523 542.772 200.357 546.055C199.223 548.428 195.118 548.382 193.077 549.488C191.849 550.154 190.561 550.913 189.353 551.619C188.49 550.462 188.697 549.666 188.742 548.307L187.618 548.875C187.257 548.013 187.268 548.076 186.768 547.294C185.437 547.11 184.43 546.936 183.129 546.676C183.152 546.65 191.772 541.656 193.766 540.079Z"/><path fill="#0C3730" d="M212.233 486.968C214.593 489.778 216.194 489.912 219.667 491.109C220.233 493.83 219.119 490.862 217.849 493.747L218.83 496.102L218.458 496.755C216.786 496.896 214.793 495.89 213.145 495.238C212.038 495.589 211.054 495.871 209.931 496.169C207.384 495.502 205.79 493.18 203.91 491.144C207.449 489.669 208.941 488.929 212.233 486.968Z"/><path fill="#0C3730" d="M194.178 476.668C197.597 477.067 201.006 476.825 204.222 477.91C205.896 479.378 208.759 482.359 207.399 484.63C205.101 484.991 205.614 484.773 203.113 483.84C200.647 482.861 195.448 485.652 193.553 484.311C194.126 482.653 195.759 481.374 197.076 480.108C195.774 478.991 194.512 478.255 194.178 476.668Z"/><path fill="#0C3730" d="M214.848 470.414C216.401 469.318 216.44 469.07 218.395 470.123C220.586 471.303 223.234 470.17 225.091 471.648L225.571 473.228L225.086 474.034C223.295 474.431 222.746 474.485 221.07 475.34C220.276 476.91 220.489 476.046 220.831 478.089C217.399 478.518 213.632 476.007 208.487 475.818L213.53 471.726C213.746 471.582 214.631 470.636 214.848 470.414Z"/><path fill="#0C3730" d="M217.693 449.248C221.033 451.226 228.174 453.358 232.533 455.459C227.278 456.849 226.283 455.849 223.864 460.799C222.614 459.67 222.245 459.298 220.752 458.414C218.186 458.203 215.877 459.671 213.184 460.743C215.595 458.328 218.071 455.979 220.612 453.701C219.679 452.198 218.673 450.723 217.693 449.248Z"/><path fill="#0C3730" d="M209.209 469.217C205.907 468.281 201.619 466.571 201.667 462.667C204.038 459.751 212.039 460.406 214.028 463.152L213.528 464.105C211.295 464.824 211.216 464.842 209.803 466.629L209.209 469.217Z"/><path fill="#17433E" d="M209.803 466.629C211.765 468.477 212.376 469.251 214.848 470.414C214.631 470.636 213.746 471.582 213.53 471.726C212.017 470.681 210.841 470.082 209.209 469.217L209.803 466.629Z"/><path fill="#F1F2F2" fill-opacity="0.019607844" d="M302.805 402.847C312.927 408.054 322.162 414.552 332.603 419.649C368.991 437.1 408.522 453.856 421.407 496.058C427.344 515.5 426.479 534.654 423.419 554.528C422.94 557.64 422.001 564.702 420.455 567.297C419.727 557.9 422.844 547.814 424.045 538.478C424.577 534.345 423.483 534.903 423.418 531.81C424.364 531.708 423.91 531.839 424.777 531.408C424.722 529.38 424.601 527.354 424.416 525.333C423.868 519.387 423.185 511.665 421.963 505.91C417.774 485.994 406.958 468.087 391.28 455.11C373.571 440.644 352.575 431.036 331.855 421.886C329.319 420.766 325.689 416.754 322.793 417.06L322.373 418.381C316.534 413.768 308.262 407.646 302.805 402.847Z"/><path fill="#F1F2F2" fill-opacity="0.011764706" d="M180.316 587.013C216.481 575.466 244.046 570.212 282.352 568.861C284.039 568.94 286.434 568.941 288.004 569.308C282.363 569.716 276.671 571.004 271.309 571.327C249.171 572.662 226.906 575.511 205.46 581.381C197.904 583.449 188.749 585.422 181.55 588.61C181.494 592.326 181.163 595.764 182.293 599.29C181.598 600.607 181.635 600.711 180.58 601.721C179.144 600.009 180.162 589.77 180.316 587.013Z"/><path fill="#0C3730" d="M189.289 519.112L191.064 519.731C193.643 518.48 191.268 517.796 193.967 517.088C198.17 519.719 195.035 520.284 201.429 520.303C200.132 524.226 198.174 521.561 200.89 527.067C198.182 526.63 186.259 524.387 184.641 524.266L184.726 523.767C186.436 522.802 188.673 521.816 189.717 520.255L189.289 519.112Z"/><path fill="#0C3730" d="M173.636 510.106C177.362 509.369 187.9 507.058 189.124 512.008C188.411 513.656 187.858 513.95 186.507 515.103C185.084 515.695 185.138 515.788 183.655 516.027C181.886 515.246 179.785 516.133 177.78 516.635L177.152 516.236L177.453 513.798C176.585 511.979 176.535 512.422 174.357 511.207L173.636 510.106Z"/><path fill="#0C3730" d="M179.587 488.926C183.089 488.412 183.502 487.761 186.264 485.474C188.265 486.777 191.033 488.196 192.084 490.16L191.856 490.983L190.159 491.8L191.459 493.945L191.003 494.421C186.678 494.426 181.73 492.881 179.587 488.926Z"/><path fill="#333635" fill-opacity="0.94509804" d="M503.158 190.717C503.112 187.609 504.054 174.702 504.862 172.02L505.212 172.256C505.541 176.817 504.648 192.532 504.063 197.227C503.902 195.152 503.784 193.075 503.708 190.995L503.158 190.717Z"/><path fill="#626063" fill-opacity="0.011764706" d="M289.108 408.531C285.932 411.129 282.792 413.735 279.507 416.197C278.181 415.335 278.15 415.021 277.347 413.665C281.238 411.976 285.259 410.289 289.108 408.531Z"/><path fill="#17433E" fill-opacity="0.96470588" d="M502.933 246.443C503.493 249.127 503.549 252.891 503.558 255.657L502.465 256.154L503.507 256.178L503.47 256.433L502.704 256.894L503.512 256.157L503.099 257.313C501.7 255.269 501.969 249.177 501.935 246.517L502.933 246.443Z"/><path fill="#17433E" fill-opacity="0.98823529" d="M183.655 516.027C185.138 515.788 185.084 515.695 186.507 515.103C187.26 516.18 188.653 518.04 189.289 519.112C186.812 518.427 185.654 517.572 183.655 516.027Z"/><path fill="#17433E" fill-opacity="0.73333335" d="M533.284 524.209C534.723 526.272 534.011 529.604 533.747 532.131C532.716 529.583 533.007 526.87 533.284 524.209Z"/><path fill="#F1F2F2" fill-opacity="0.031372551" d="M504.218 157.032C504.603 155.787 504.835 154.045 505.668 153.566C506.097 154.784 506.226 155.279 506.496 156.544L504.218 157.032Z"/><path fill="#0C3730" d="M744.855 457.853C757.563 473.729 770.737 492.803 782.874 509.321L849.939 600.359C862.995 618.086 880.45 642.809 894.715 658.935C892.181 657.43 884.244 650.112 881.574 647.749L855.607 624.847L753.242 534.656C743.935 544.281 735.889 554.947 727.633 565.464L695.243 606.589L583.396 746.796L476.67 878.923C464.266 894.38 444.507 916.52 433.774 932.241C446.023 934.204 457.59 937.351 470.789 939.235C515.917 945.484 561.702 945.319 606.784 938.742C702.928 924.841 791.525 878.77 858.121 808.047C875.287 790.176 893.239 767.571 908.116 747.625L909.248 748.742C907.15 751.795 904.284 757.162 902.138 760.598C897.796 767.441 893.223 774.135 888.427 780.668C852.984 829.827 807.41 870.814 754.78 900.862C735.025 911.976 713.481 922.418 692.332 930.567C604.531 964.398 498.503 965.936 408.02 940.569C420.74 922.512 436.321 904.352 450.342 887.134L518.29 803.053L661.935 622.592L744.643 519.009C746.02 499.516 743.978 477.435 744.855 457.853Z"/><path fill="#B59B63" d="M828.949 192.199C829.618 192.107 829.252 192.141 830.364 192.086C849.892 191.126 868.977 198.114 883.269 211.455C897.692 224.798 906.212 243.331 906.949 262.965C907.565 281.217 900.831 298.953 888.257 312.198C875.483 325.839 856.54 334.538 837.836 334.966C818.716 335.456 800.215 328.173 786.558 314.782C783.037 311.242 780.078 307.794 777.35 303.621C778.092 303.956 778.837 304.284 779.585 304.608C806.084 316.062 840.066 309.102 851.773 280.555C856.216 269.688 856.14 257.497 851.562 246.686C846.297 234.226 836.294 224.37 823.758 219.288C807.349 212.759 792.045 215.586 776.447 222.366C777.521 220.826 778.628 219.309 779.767 217.816C792.428 201.126 808.841 194.995 828.949 192.199ZM802.73 207.794C822.968 210.069 837.496 212.764 851.083 229.917C860.132 241.175 864.297 255.587 862.651 269.937C861.006 284.028 853.724 296.852 842.465 305.484C827.384 317.171 815.304 316.91 797.367 316.433C803.644 319.761 808.884 321.845 815.627 324.13C833.081 329.19 849.938 327.708 866.002 318.903C880.72 310.881 891.567 297.247 896.076 281.103C900.6 265.477 898.679 248.691 890.741 234.492C882.426 219.498 867.217 207.518 850.735 202.865C842.282 200.484 833.454 199.732 824.72 200.65C816.031 202.153 810.643 203.757 802.73 207.794Z"/><path fill="#0C3730" d="M493.233 530.147C503.097 534.67 500.976 577.326 500.957 587.729C500.975 607.652 500.88 627.575 500.671 647.498C500.296 692.987 501.005 738.737 500.326 784.132C498.214 787.578 492.428 793.962 489.602 797.225C488.822 798.145 489.299 797.937 488.294 798.15C487.501 796.092 487.936 748.993 487.939 742.915L487.752 631.249C487.62 615.551 487.843 599.085 487.29 583.46L486.816 586.339C486.359 584.999 486.285 571.244 486.484 569.426C487.84 557.053 487.223 541.191 493.233 530.147Z"/><path fill="#0C3730" d="M514.653 530.235C522.198 536.079 520.805 570.635 520.843 580.651C520.907 601.18 520.782 621.71 520.47 642.238C520.179 681.175 521.142 722.343 520.179 761.002L512.25 770.933L508.395 775.645C509.298 759.502 508.446 736.924 508.438 720.306L508.459 608.067L508.674 578.561C508.654 563.247 507.265 543.887 514.653 530.235Z"/><path fill="#0C3730" d="M457.669 727.785C458.588 727.947 458.116 727.757 459 728.53C459.483 731.201 459.092 734.113 458.895 736.863C455.1 740.634 452.93 742.96 450.117 747.478C448.823 771.123 450.038 795.314 449.705 819.001C449.586 827.457 450.185 838.639 449.49 846.852C447.003 850.12 445.138 852.342 442.37 855.384C442.2 855.216 441.999 855.075 441.86 854.881C440.345 852.773 440.377 753.954 442.407 745.747C444.372 737.805 450.984 731.841 457.669 727.785Z"/><path fill="#B59B63" d="M663.562 85.8141C665.689 91.1789 668.236 101.659 669.791 107.438C676.557 107.132 685.122 107.657 691.933 107.944C686.081 111.781 680.309 115.738 674.621 119.811C676.126 126.379 677.923 132.876 680.005 139.285C676.249 136.51 666.293 128.911 662.238 127.446C657.653 131.466 650.908 136.081 645.861 139.705C648.004 133.18 650.273 126.696 652.667 120.258C647.348 115.926 640.773 112.066 635.045 107.529C642.306 107.567 649.774 107.367 657.051 107.254C659.482 100.415 661.471 92.83 663.562 85.8141Z"/><path fill="#B59B63" d="M887.389 349.301C890.188 351.386 893.369 365.079 894.433 368.989C900.072 368.317 909.624 368.871 915.712 369.043C910.54 372.265 904.436 376.94 899.018 380.501C901.123 387.061 903.807 394.141 906.139 400.674C900.559 396.778 895.146 392.582 889.432 388.628C883.75 391.039 876.029 397.001 871.183 400.825C873.22 394.082 875.182 387.317 877.067 380.53C870.645 376.76 865.708 373.689 859.824 369.009C866.889 368.554 873.792 368.531 880.868 368.458C882.843 361.733 884.985 355.892 887.389 349.301Z"/><path fill="#B59B63" d="M916.379 420.29C918.649 422.177 921.277 433.264 922.194 436.62C927.715 436.489 933.237 436.419 938.759 436.411C935.331 439.813 929.848 443.435 925.793 446.302C927.46 451.377 928.958 456.684 930.478 461.818C925.929 458.645 921.307 455.578 916.614 452.622C912.587 455.846 907.9 459.146 903.711 462.228C905.325 456.979 906.781 451.513 908.264 446.213C903.564 443.306 897.33 439.593 893.192 436.046C898.713 436.544 905.201 436.457 910.807 436.498C912.236 431.302 914.526 425.421 916.379 420.29Z"/><path fill="#B59B63" d="M745.518 140.776C746.935 142.471 749.288 150.398 750.154 153.042C752.838 152.983 762.525 152.302 764.055 153.711C763.047 155.564 755.276 160.74 752.969 162.39C754.326 166.924 757.365 174.232 759.296 178.452C755.196 175.08 751.021 171.801 746.774 168.617L746.512 168.305C745.187 168.427 735.589 175.78 733.524 177.274C735.034 172.303 737.32 166.68 739.009 161.567C734.695 158.452 730.794 155.7 726.766 152.19C731.502 152.832 736.659 153.065 741.513 153.571C742.58 149.036 743.888 145.122 745.518 140.776Z"/><path fill="#0C3730" d="M410.552 839.527C416.823 839.926 424.693 844.046 416.407 849.598C409.21 849.537 401.214 845.005 410.552 839.527Z"/><path fill="#0C3730" d="M384.493 873.045C392.521 873.92 396.556 880.078 388.122 883.624C380.259 883.369 376.012 875.998 384.493 873.045Z"/><path fill="#0C3730" d="M383.997 801.53C391.436 801.136 396.966 804.636 389.849 811.489C389.087 811.535 388.325 811.56 387.563 811.566C381.466 811.563 377.022 806.324 383.997 801.53Z"/><path fill="#0C3730" d="M370.054 853.536C376.667 853.247 383.98 857.675 376.05 863.333C368.625 863.727 361.447 858.836 370.054 853.536Z"/><path fill="#0C3730" d="M371.524 746.566C377.993 746.57 385.839 751.3 377.41 756.543C370.463 756.626 363.07 751.828 371.524 746.566Z"/><path fill="#0C3730" d="M410.53 803.579C417.576 803.482 423.748 809.168 415.506 813.698C414.664 813.693 413.821 813.661 412.981 813.601C406.262 813.072 403.992 807.726 410.53 803.579Z"/><path fill="#0C3730" d="M400.14 785.182C400.769 785.251 401.397 785.338 402.022 785.444C408.607 786.619 410.468 792.111 402.886 795.219C398.777 794.804 396.332 794.065 394.746 790.012C395.051 786.34 396.881 785.778 400.14 785.182Z"/><path fill="#0C3730" d="M383.528 837.513C390.226 837.011 398.143 841.863 389.916 847.031C383.732 847.404 375.186 842.625 383.528 837.513Z"/><path fill="#0C3730" d="M395.371 893.509C395.8 893.488 396.229 893.474 396.658 893.465C403.014 893.353 409.414 897.555 402.186 903.099C397.079 904.268 388.08 899.591 395.371 893.509Z"/><path fill="#0C3730" d="M358.923 727.49C366.327 727.063 372.258 731.813 364.403 737.56C358.432 737.642 351.298 733.188 358.923 727.49Z"/><path fill="#0C3730" d="M371.423 783.072C378.276 782.719 386.017 786.662 377.585 792.36C370.914 792.857 363.599 789.055 371.423 783.072Z"/><path fill="#0C3730" d="M357.919 762.564C364.52 762.365 370.841 766.85 363.665 772.582C356.408 772.76 350.302 768.843 357.919 762.564Z"/><path fill="#0C3730" d="M369.143 890.536C375.342 890.162 383.667 893.2 376.388 899.854C370.459 901.554 362.674 897.202 369.143 890.536Z"/><path fill="#0C3730" d="M410.564 876.477C417.622 876.342 423.791 880.981 415.12 886.404C409.171 887.072 402.299 881.494 410.564 876.477Z"/><path fill="#0C3730" d="M383.978 766.028C390.836 765.999 397.39 770.737 389.469 776.233C382.771 776.071 376.322 771.651 383.978 766.028Z"/><path fill="#0C3730" d="M397.265 820.559C404.372 820.139 411.171 825.077 403.212 830.542C396.585 830.55 390.56 826.866 397.265 820.559Z"/><path fill="#0C3730" d="M424.57 787.479C431.842 787.584 437.089 793.442 428.707 797.335C425.541 797.073 421.726 796.581 420.312 793.125C420.025 792.44 420.017 791.67 420.29 790.979C421.086 788.925 422.656 788.243 424.57 787.479Z"/><path fill="#0C3730" d="M370.545 818.518C376.915 817.805 384.878 821.883 377.203 827.847C371.378 828.698 362.938 824.337 370.545 818.518Z"/><path fill="#0C3730" d="M423.627 752.516C429.893 752.283 437.377 756.972 429.342 762.382C423.183 762.966 415.808 758.127 423.627 752.516Z"/><path fill="#0C3730" d="M384.463 730.071C391.294 730.826 397.804 736.114 389.077 740.138C382.069 739.695 376.267 735.066 384.463 730.071Z"/><path fill="#0C3730" d="M395.834 857.034C401.665 856.666 410.973 859.978 403.442 866.226C397.319 867.386 389.602 862.163 395.834 857.034Z"/><path fill="#0C3730" d="M356.587 870.555C363.177 870.136 370.432 873.997 362.915 879.98C356.562 880.274 349.503 876.645 356.587 870.555Z"/><path fill="#0C3730" d="M425.135 859.455C432.442 861.037 434.496 865.215 428.155 870.444C420.829 869.066 416.294 863.865 425.135 859.455Z"/><path fill="#0C3730" d="M422.649 823.538C428.45 823.134 436.666 826.122 429.716 832.426C423.6 833.639 415.58 829.424 422.649 823.538Z"/><path fill="#0C3730" d="M372.336 710.99C378.454 710.602 386.631 714.509 379.115 720.387C373.305 719.958 365.313 717.566 372.336 710.99Z"/><path fill="#0C3730" d="M424.905 717.016C431.443 717.634 437.406 721.184 429.678 726.655C422.891 726.735 416.517 721.886 424.905 717.016Z"/><path fill="#0C3730" d="M398.159 714.179C405.161 713.977 411.6 718.034 403.441 723.696C398.122 722.843 389.685 718.609 398.159 714.179Z"/><path fill="#0C3730" d="M410.951 732.922C414.566 733.686 420.33 735.084 419.284 739.882C417.938 741.611 417.733 741.618 415.689 742.59C408.685 742.412 402.937 738.074 410.951 732.922Z"/><path fill="#0C3730" d="M409.872 769.085C416.361 768.769 423.2 771.078 416.562 777.992C410.54 778.354 402.784 775.17 409.872 769.085Z"/><path fill="#0C3730" d="M358.319 834.477C364.718 834.76 370.503 839.402 362.898 844.278C355.64 843.966 350.919 839.593 358.319 834.477Z"/><path fill="#0C3730" d="M397.917 750.001C401.73 750.207 406.672 750.978 406.388 755.788C405.297 757.767 405.113 757.803 403.193 759.126C396.524 759.422 390.094 754.626 397.917 750.001Z"/><path fill="#0C3730" d="M357.471 799.581C361.508 799.056 366.581 799.484 367.02 804.422C366.255 806.545 366.054 806.621 364.375 808.238C358.468 808.597 351.594 806.271 357.471 799.581Z"/><path fill="#0C3730" d="M438.118 736.616C444.118 737.626 440.355 742.673 438.31 746.277L437.251 746.32C431.558 742.699 430.17 738.422 438.118 736.616Z"/><path fill="#0C3730" d="M435.247 842.199L436.932 842.817C438.637 845.002 438.929 850.732 437.867 853.173L437.133 853.051C432.103 849.825 428.39 846.658 435.247 842.199Z"/><path fill="#0C3730" d="M435.654 770.406C436.98 770.449 436.457 770.172 437.339 771.075C437.91 773.988 438.671 777.572 437.097 780.27L435.783 780.288C431.112 776.468 429.8 773.965 435.654 770.406Z"/><path fill="#0C3730" d="M436.477 805.801C436.796 805.977 437.115 806.153 437.433 806.329C437.605 808.819 438.294 813.116 436.501 814.923L434.843 814.536C432.746 812.708 432.035 812.386 432.371 809.559C433.481 807.7 434.689 807.073 436.477 805.801Z"/><path fill="#E8D9B8" fill-opacity="0.9254902" d="M525.359 69.3084C528.503 69.6842 531.627 69.893 534.615 70.8819C533.834 71.586 532.198 71.3913 531.021 71.3262C530.247 71.2785 529.473 71.2237 528.7 71.1617C527.79 70.9744 525.738 70.2133 524.76 69.8785L525.359 69.3084Z"/><path fill="#0C3730" fill-opacity="0.97647059" d="M912.462 742.024C911.354 744.704 910.744 746.19 909.248 748.742L908.116 747.625L912.462 742.024Z"/></svg>